<?xml version="1.0" standalone="no"?>
<!DOCTYPE svg PUBLIC "-//W3C//DTD SVG 20010904//EN"
 "http://www.w3.org/TR/2001/REC-SVG-20010904/DTD/svg10.dtd">
<svg version="1.0" xmlns="http://www.w3.org/2000/svg"
 width="666.000000pt" height="666.000000pt" viewBox="0 0 666.000000 666.000000"
 preserveAspectRatio="xMidYMid meet">
<metadata>
Created by potrace 1.14, written by Peter Selinger 2001-2017
</metadata>
<g transform="translate(0.000000,666.000000) scale(0.100000,-0.100000)"
fill="#000000" stroke="none">
<path d="M1372 4104 c-98 -33 -141 -59 -216 -129 -91 -86 -146 -183 -169 -300
-31 -155 -5 -290 79 -420 112 -171 284 -267 479 -269 103 -1 145 5 198 27 20
9 41 17 45 18 19 4 91 45 127 72 107 82 189 215 212 347 13 71 5 204 -16 268
-48 148 -150 277 -272 342 -135 72 -330 90 -467 44z m307 -275 c180 -77 227
-340 86 -484 -40 -42 -124 -83 -180 -88 -49 -4 -146 17 -183 40 -40 25 -91 82
-115 128 -30 59 -30 182 1 250 70 153 240 220 391 154z"/>
<path d="M3023 4122 c-41 -3 -43 -5 -44 -35 0 -18 0 -127 1 -244 l1 -212 -48
-24 c-45 -22 -58 -24 -203 -23 -129 1 -159 4 -180 18 -37 25 -137 19 -178 -11
-92 -65 -206 -501 -144 -553 28 -24 65 -35 106 -33 41 3 57 16 126 105 70 91
70 90 111 84 35 -6 42 -3 75 30 32 32 36 41 31 71 l-6 35 58 0 57 0 -4 -34
c-8 -64 60 -122 114 -97 14 6 27 11 28 11 2 0 30 -35 62 -77 83 -110 115 -138
158 -141 45 -3 105 24 115 52 5 12 9 258 10 548 l1 527 -102 3 c-57 2 -122 2
-145 0z m-525 -644 c3 -37 4 -38 42 -38 39 0 39 -1 38 -35 -1 -34 -3 -35 -40
-35 -36 0 -38 -1 -38 -33 0 -31 -2 -33 -35 -34 -33 -1 -35 1 -35 33 0 33 -1
34 -39 34 -38 0 -40 1 -39 31 1 31 13 41 51 43 18 1 23 8 25 38 3 34 5 36 35
35 29 -2 32 -5 35 -39z m293 -41 c-13 -13 -26 -3 -16 12 3 6 11 8 17 5 6 -4 6
-10 -1 -17z m165 -35 c-9 -26 -42 -34 -61 -15 -21 20 -19 39 7 57 21 15 24 14
41 -3 12 -12 17 -26 13 -39z m-281 38 c-3 -5 -10 -10 -16 -10 -5 0 -9 5 -9 10
0 6 7 10 16 10 8 0 12 -4 9 -10z m206 -148 c7 -18 5 -22 -11 -22 -23 0 -34 15
-26 36 8 21 27 13 37 -14z m-276 -12 c-5 -16 -10 -19 -18 -11 -7 7 -6 15 3 26
7 8 15 13 17 11 3 -2 2 -14 -2 -26z"/>
<path d="M2211 3950 l1 -170 66 -21 c37 -11 95 -29 130 -39 l62 -19 0 30 c0
24 4 29 18 25 15 -5 219 -54 317 -76 21 -5 40 -8 41 -7 1 1 -96 102 -215 225
l-217 222 -102 0 -102 0 1 -170z"/>
<path d="M3413 4013 c7 -110 10 -139 28 -230 6 -29 11 -56 11 -60 3 -29 72
-211 103 -273 39 -78 93 -163 107 -168 4 -2 8 -8 8 -13 0 -15 111 -129 170
-174 123 -94 133 -97 296 -97 80 0 148 3 151 6 4 3 7 65 8 136 l1 130 -26 0
c-36 1 -454 -1 -520 -2 l-55 -1 -2 314 c-1 173 -2 365 -2 427 l-1 112 -141 0
-142 0 6 -107z"/>
<path d="M4116 4098 c10 -12 24 -27 29 -34 45 -50 140 -158 175 -199 24 -27
51 -59 61 -70 65 -71 193 -217 210 -239 9 -12 33 -39 53 -60 20 -22 36 -45 37
-50 1 -6 2 -108 3 -226 l1 -215 148 -3 147 -3 1 28 c0 16 1 116 1 223 l0 196
35 39 c19 22 58 65 87 96 28 30 83 90 121 133 39 43 81 90 95 105 39 42 214
233 245 266 l27 30 -194 3 -193 3 -35 -39 c-62 -69 -174 -194 -193 -216 -10
-12 -46 -52 -80 -90 l-61 -68 -29 33 c-16 19 -44 50 -61 69 -18 19 -85 97
-150 173 l-118 137 -191 0 -190 0 19 -22z"/>
<path d="M5608 4113 c6 -2 18 -2 25 0 6 3 1 5 -13 5 -14 0 -19 -2 -12 -5z"/>
<path d="M5653 4103 c3 -12 0 -24 -7 -27 -6 -2 -6 -5 -1 -5 6 0 17 4 25 9 13
8 13 12 -4 27 -18 17 -18 17 -13 -4z"/>
<path d="M5687 4113 c-3 -5 -1 -17 4 -28 7 -17 8 -17 8 8 1 27 -4 34 -12 20z"/>
<path d="M5615 4090 c-3 -5 -1 -10 4 -10 6 0 11 5 11 10 0 6 -2 10 -4 10 -3 0
-8 -4 -11 -10z"/>
<path d="M3406 3352 c1 -175 2 -325 3 -335 1 -16 18 -17 228 -17 l226 1 -39
31 c-69 55 -185 180 -234 253 -69 102 -144 261 -166 348 -3 15 -9 29 -13 31
-3 2 -5 -138 -5 -312z"/>
<path d="M1220 2690 l0 -176 28 2 c15 1 30 2 33 3 4 0 6 29 5 64 l-1 62 86 3
87 3 0 -61 c0 -34 3 -64 7 -68 11 -11 55 -9 56 3 1 15 1 308 0 325 -1 11 -11
16 -31 15 -34 0 -32 4 -32 -88 l1 -68 -87 3 -87 3 0 73 c0 39 -2 72 -5 73 -3
1 -17 2 -32 3 l-28 3 0 -177z"/>
<path d="M1780 2756 c0 -188 29 -239 141 -245 81 -4 140 34 155 100 7 33 7
240 -1 247 -3 4 -17 7 -30 8 -25 1 -25 1 -26 -100 -1 -56 -2 -105 -4 -111 -1
-5 -3 -18 -3 -27 -5 -58 -99 -79 -142 -33 -22 24 -24 33 -24 145 -1 66 -3 120
-6 121 -3 1 -17 2 -32 3 l-28 3 0 -111z"/>
<path d="M2350 2695 c0 -166 1 -174 20 -180 39 -12 46 8 45 115 -1 55 1 100 5
100 3 0 28 -47 55 -105 28 -58 56 -105 63 -106 6 -1 20 -2 30 -3 12 -1 32 29
73 113 l56 113 2 -107 c1 -59 3 -111 6 -115 4 -6 34 -7 55 -1 4 1 5 296 1 337
-1 9 -67 12 -75 3 -2 -2 -31 -62 -66 -134 l-61 -130 -67 135 -67 134 -37 2
-38 2 0 -173z"/>
<path d="M3155 2856 c-7 -6 -32 -58 -55 -116 -23 -58 -50 -126 -61 -152 -26
-64 -25 -75 9 -74 20 1 31 10 41 34 15 34 17 34 106 34 76 0 75 0 75 -21 0
-27 24 -48 52 -46 28 3 28 25 -1 88 -10 23 -37 92 -60 153 -38 100 -45 110
-67 110 -14 0 -32 -5 -39 -10z m59 -140 c14 -37 26 -69 26 -70 0 -1 -25 -2
-56 -4 -61 -4 -61 -2 -34 63 4 11 14 35 20 53 7 18 14 31 15 30 2 -2 15 -34
29 -72z"/>
<path d="M3600 2863 c-15 -3 -16 -43 -11 -319 1 -29 4 -32 31 -30 34 1 32 -7
31 134 -1 50 2 92 6 92 5 0 44 -51 89 -113 73 -101 83 -112 112 -113 23 0 32
4 32 15 3 174 1 324 -4 329 -4 3 -18 7 -31 8 -28 1 -26 13 -26 -163 -1 -40 -2
-73 -4 -73 -4 0 -90 116 -138 185 -32 47 -49 56 -87 48z"/>
<path d="M4152 2691 c3 -192 -1 -180 56 -172 5 1 9 79 9 174 l0 172 -34 1 -33
1 2 -176z"/>
<path d="M4443 2853 c-13 -33 2 -48 45 -47 23 0 43 -2 43 -5 1 -3 3 -60 4
-126 2 -66 4 -130 4 -141 1 -17 7 -21 31 -20 28 1 30 3 30 41 1 22 2 87 3 144
l2 105 45 0 c43 1 45 2 45 31 l0 30 -124 0 c-88 1 -125 -3 -128 -12z"/>
<path d="M4900 2857 c0 -6 27 -53 60 -106 56 -91 60 -101 62 -166 3 -58 6 -69
22 -71 35 -5 41 5 42 70 1 59 5 70 63 163 33 55 61 105 61 110 0 15 -61 8 -71
-8 -5 -8 -25 -43 -45 -78 l-36 -64 -18 29 c-9 16 -30 51 -46 78 -25 42 -35 50
-62 51 -18 1 -32 -3 -32 -8z"/>
</g>
</svg>
